<?xml version="1.0" standalone="no"?><!DOCTYPE svg PUBLIC "-//W3C//DTD SVG 1.1//EN" "http://www.w3.org/Graphics/SVG/1.1/DTD/svg11.dtd"><svg t="1724334696732" class="icon" viewBox="0 0 1024 1024" version="1.1" xmlns="http://www.w3.org/2000/svg" p-id="1756" xmlns:xlink="http://www.w3.org/1999/xlink" width="200" height="200"><path d="M276.48 965.632h471.04c17.408 0 31.232-13.824 31.232-31.232 0-17.408-13.824-31.232-31.232-31.232H276.48c-17.408 0-31.232 13.824-31.232 31.232 0 17.408 13.824 31.232 31.232 31.232zM58.368 89.6v665.6c0 17.408 13.824 31.232 31.232 31.232h844.8c17.408 0 31.232-13.824 31.232-31.232v-665.6c0-17.408-13.824-31.232-31.232-31.232h-844.8c-17.408 0-31.232 13.824-31.232 31.232z m815.616 634.368H150.016c-17.408 0-31.232-13.824-31.232-31.232V152.064c0-17.408 13.824-31.232 31.232-31.232h723.968c17.408 0 31.232 13.824 31.232 31.232v540.672c0 17.408-13.824 31.232-31.232 31.232z" fill="#343399" p-id="1757"></path><path d="M289.792 389.632h70.656v175.616H289.792zM663.552 364.032h70.656v200.704h-70.656zM476.672 287.232h70.656v277.504H476.672z" fill="#F59D0D" p-id="1758"></path></svg>